<svg xmlns="http://www.w3.org/2000/svg" viewBox="0 0 595 320" xmlns:v="https://vecta.io/nano"><path d="M593.2 4.2C593 6.9 589.5 8 589 10s-.9 4.8 1 6.6c2.2 2.2 1.8 4.7 1.1 6.7-.5 1.4-.2 2.6-.4 3.9-.5 2.7 1.6 5.4-.5 8.2-.4.5-2.3 3.9 1.8 4.1.1 0 .4 1 .2 1.5-.8 2.3-1.1 4.7-1.5 7.1-.6 3.6-1.2 3.9 1.3 7.2.4.5.5 1.8.1 2.2-1.8 1.5-.5 4.1-2.6 5.4-.1.1-.1.2-.2.3-1.6 1.9 2.6 2.2 1.4 4-1.1 1.5-1.3 2.9.8 3.9.5.2.8.9.6 1-3.1 1.4.1 4.7-2.4 6.3-.2.1-.2.5-.3.8 3.7.6 1.3 3.4 2.3 5 .4.6.4 1.7-.9 2.2-.9.3-.9 1.2-.8 2 .7 3.2 1.4 6.3.5 9.6-.2 1 1 2.8 1.4 4.4 1.2 4.1.1 8-.4 12-.3 2.5.3 5.1.7 7.7.3 1.4 1.2 2.7-1.2 3.3-.8.2-.4 1.4-.3 2.1 1 5.1 2.9 10.5 1.7 15.5-.8 3.6 1.5 7.7-2 11-.4.4-.7 3 1 3.6 1.5.5 1.2 1.2 1.5 2.1.6 2.1.3 3.8-1.9 5-.9.5-2 1.1 0 1.5 1.1.2 1 .7 1.1 1.4.2 2-2 4.2.7 6 .3.2.3 1.6-.6 1.6-3.4.2-2.6 2.1-2.4 4 .1 1.3.1 2.5-1 3.8-.9 1.1-.9 3.1 1 4.9 1.8 1.7 2.2 4.7 1.1 6.7-.6 1.2-1 2.3-1 3.4.1 3.4-1.7 6.7-.5 10.1.2.7-3.2 2-4 1.6-2.2-1-5.2-.3-5.6 1-.7 2.1-1.9 1.8-3.4 1.8-3.8.1-7.5 0-11.3.6-4.1.5-8.2-1-12.4-.6-2.5.2-5 .1-7 1.8-.1.1-1.6 1.4-2.6-.2-.7-1-7.4-.8-8.5 0-3 2.3-3.5 2-8.1.7-1-.3-4.4-1-5.4 1.5-.4 1-1.1 1.4-2.2 1.3-2-.1-3.8.3-5.8.6-1.3.2-2.8.6-4.2-1.3-1.3-1.8-4.4 0-6.4.4-2.5.5-3.7.7-3.6-2 0-1.4-1.4-1.5-2.7-1.5h-37.7c-1 0-2.5-.3-2.3 1.2.3 2.3-1.5 2.1-3 2-16.6-.8-33.3-.7-49.9-1.9-1.5-.1-3.5-1-4.5 1.5-.4.9-3.4 1-4.6-.1-2.3-2.3-4.5-1.8-6.9-.6-.5.2-.7.4-1.2.1-4.3-2.2-4.2-2-8.9.1-1.4.6-3.9 1-5-.7-1-1.5-2.7-1.4-3.4-.9-2.8 2.3-6.1.5-9 1.1-2 .4-1-1.8-2.5-2-1.9-.3-3 1.3-4.5 1.3-6.6.1-13.2.1-19.7-.2-1.5 0-3.3.1-4.6-1.5-.9-1.2-1.6 1.1-2.8 1.1-4.3-.1-8.7.4-12.9-.2-5.4-.8-10.9-.7-16.1-.2-2.4.2-4.9 1-7.5 1-1.4 0-3 .3-3.7-1.3-.4-.9-2-.8-1.9-.2.1 3.1-2.6 1.5-3.4 1.4-4.1-.7-8.1-.5-12.2-.5-.8 0-1.7-.3-2.3.5-.8 1-1.5 1.3-1.9-.3 0-.1-1-.3-1.2-.1-4.1 2.6-8.7.5-13 1.1-.7.1-1.5.1-1.6-.9-.2-1.6-2-1.3-2.5-.9-3 2.1-6.5.8-9.8 1.2-1.4.1-3-.4-3.7 1.3-.1.2-.7.5-.8.4-5-3-10.1 1.1-15.1-.3-.7-.2-1.3.1-1.5 1-.4 1.5-1.2.9-1.9.1-1.5-1.8-1.8-1.9-2.4-.3-.6 1.5-1.4.9-2.5.8-6.5-.7-13.1-1.1-19.3 0-4.5.8-8.9 1.3-13.1.8-5.2-.6-10.4-1-15.4-.2-4.3.6-8.5 1.1-12.7 1-2.2 0-4.4.4-6.5-.5-.6-.3-2-.1-2.4.3-3.1 3.1-7.1 1.2-10.6 1.4-2 .2-4.1-1.3-6 .6-.4.4-1.3.4-1.6-.2-.9-1.3-1.7-1.4-2.6 0-.2.3-1 .4-1.3.3-4.1-1.6-8.1.9-12.2 0-3.7-.8-7.1-2.4-11.4-1.7-8.8 1.3-17.7 2.6-26.7 2.4-5.2 3.6-11.5 2.1-17.3 2.9-5.9.8-12 .7-18.1 1-1.6.1-5.9-2.3-7.1-3.5-1.7-1.6-4.3-1.7-6.5-2.2-1.7-.4-2.2-1.2-3.1-2.3-.1 1.8-2.6 1.8-2.7 3.5 0 .1-.6.3-.9.2-5-1.1-6.9-3.3-7.5-8.2-.1-.8.7-2-1.6-1.7-1.1.2-.8-1.6-.3-1.8 2.5-.7 2.8-3.3 4.9-4.3 1.4-.7.3-.8-.5-1.3-4.4-2.4-4.6-5.3-.5-8.3 1.6-1.1 1.7-2.6.1-3.2-2.2-.8-1.4-2.5-1.1-3.2.6-1.1 1.6-1.8-.1-2.9-.5-.3 0-1 1-1.3 3.3-.8 3.4-2.8 1.1-5.3-1.1-1.2-2.8-3.3-.3-4.9 1.1-.7 1-1.3 1-2.2.1-2.9-1.2-5.7-.8-8.7.1-.4-.1-.8-.6-1.1-3.1-1.9-1.6-3.4.5-4.9-3-2.3-3.4-5.4-1.2-8 .1-.1.3-.2.2-.2-1.5-3.7 1.8-6.7 1.6-10.3-.1-3.4-3.6-5.9-2.8-9.4.2-1-.3-2.1 1.3-2.7.8-.3 1-1 .5-1.9-.9-1.6-.4-3 2.1-3.5-2.7-1.5-3.1-3.1-1.3-5.1.8-.9.8-1.9 0-2.8-2.2-2.2-2.4-4-.4-6.1.2-.2.7-.2.5-.6-1.7-4.9.6-9.7.9-14.6.2-4.1-3.7-7.1-2.7-11.1.2-.6-.4-.9-1.1-1-.8 0-1.3-.9-1-1 2.1-.8 1.5-3.3 3.2-4.1 3.2-1.6 3.6-3 1-5.3-1.1-1-2.3-1.1.2-2.2 2.8-1.2 2.8-6 .6-8.3C6 59 6.1 57.5 7 56.4c1.2-1.4 1.7-2.4-.2-3.5-.3-.2-.5-.5-.8-.7 2.9-2.4-2.5-5 .6-7.9 2.4-2.2-.9-6.2 1.7-9 1-1.1-.7-1-1-1.6-1.3-1.1-2.3-2.7.9-3 .6-.1 1.7.6 1.8-.8.1-1 .1-2.2-1-2.3-2-.3-1.6-1.4-1.5-2.4.2-1.6 1.7-1 2.6-.9 3.4.1 6.5.2 7-3.8.2-1.3 1.5-.7 2.4-.8 11.8-.5 23.5-.9 35.3-.7 4.2.1 8.3-1.3 12.7-.2 1.1.3 2.9-2.3 5.3-1.7 1.3.3 2.8-.6 3.8 1.5.6 1.2 4.4 1 5 .2 1.4-1.9 2.9-1 4.4-1 3.7-.1 7.4 0 11.1.1.8 0 1 0 1.5-.6 1.1-1.3 2.7-1.5 3.5.3.6 1.2 1.8 1.1 2.4.8 5-2.5 10.5-.7 15.7-1.2 2.4-.3 4.9.5 7-1.2.6-.5 2.1-.5 3.1.3 1.3 1 2.6 2.3 4.1-.1.5-.8 1.9-.3 2.4.5 1 1.5 2.1 1.6 3.3.3.7-.7 1.6-.4 2.4-.5h11.1c.7 0 1.9.9 2.1-.7.1-.9 1.4-.8 1.8-.6 4.1 2.8 8-1.3 12.2-.1 4.5 1.2 9.3.8 13.9.7 2.1 0 4.4.7 6.1-1.2.2-.3 1.4-.3 1.7-.1 3.1 2.8 6-.8 9.1-.2 3.5.8 7.3.6 11 .7 1.2 0 2.9.7 3.4-1.4.3-1 6.5-.4 7.6.7 1.4 1.5 4.8 1.5 6.3-.1.7-.8 1.6-.5 2.3-.5 3.3.1 6.6-.2 9.9.5 1.7.3 4.2 1.3 6-1.4.9-1.3 4.2-.7 6.3-.2 1.6.3 3.1.5 4.7.4 9.5-.4 19 1 28.5.7 1.2-.1 3 .7 3.4-1.4.1-.7 1-.7 1.7.1 1.9 1.9 2.9 2 4.5.1.5-.5.7-.3 1.2-.2 2.8.6 6.4-1.1 8.5 2 .1.2.9.4 1 .3 3.5-3.4 8.1-1 12.1-1.4 2.8-.3 6.7.8 8.5 0 2.6-1.2 3.6-.9 5.3.5.3.2 1.5 0 1.7-.2 1-1.9 1.8-2.9 2.8 0 .1.2 1.2.3 1.3.1 2.5-3.8 6.7-1.9 9.7-1.7 10.1.8 20.1.9 30.2 1.4 3.4.2 6.8.4 10.2.3 1.5 0 3.4.8 4.1-1.5.2-.5 2.4-1.3 3.4.7.7 1.4 2.4 1.5 3.6.6 2.6-1.9 3.4-1.9 5.1.8 1.8-1.1 3.3-4.1 5.6-.3.3.5 1.8 1.2 3.1.3 2.7-1.7 5.5-2.6 8 .4.4.5 1.1.4 1.6.1 3.6-2.3 9-2.4 12.3-.2.9.7 1.3.3 2.3-.3 1.4-.8 3.7-1.8 4.3 1 .3 1.4 1.4 1 2.3 1h25.2c.2 0 .6.1.7 0 2-1.9 4.5-.7 6.8-.8.9 0 3.1.9 3.1-1.4 0-.5 2-.6 2.7-.2 2.8 1.5 5.2 1.1 7.5-.7.2-.2.7-.7 1.4 0 1.4 1.3 3.3 1 4.2-.6.3-.5 3.5-.9 3.7-.4.4 1 1.8 1.1 1.9 1.2 2.7 4.6 3.4-.1 3.8-.9 1.3-2.9 4.1-1.9 5.6-1.2 1.7.7 3.3.9 4.4.3 4.8-3.1 10.5-2.5 15.7-2.8 11.1-.8 22-2.2 33.1-2.8.6 0 1.6-.2 1.6-.4.9-4.5 5.2-1.6 7.7-2.7 1.4-.6 3.2-1.1 4.6-1.6 4.5-1.4 9.5-1.3 14.4-1 1.3.1.5 1.5.9 2.2.5.9 1.7-.9 2 .4 0 1.5-2.1 1-2.1 1.4z" fill="#fff"/><path d="M187.4 146.7c-.2 0-.3-.5-.2-.8.1-.2.2 0 .3 0 .1.1.1.3.1.5 0 .1 0 .2-.2.3zm8.3-.1v-.1c0-.1-.1-.1-.2-.1-.2 0-.7-.5-.8.1-.1.5.7.1 1 .1zm1.2-.7c.2-.2.2-.6.5-.8.2-.2.6-.2.6-.5.1-.3-.2-.4-.5-.4-.6 0-1.7 0-2.2.6-.4.5 0 1.1.5 1.2.3.1.8.1 1.1-.1zm-.7-7.3c-.1-.1-.2-.1-.3 0-.1 0-.3-.5-.5 0-.1.2-.2.4-.1.5.2.2.6.1.7 0 .3-.1.4-.4.2-.5zm7.3 9.2c0 .2 0 .4.2.4.1 0 .2-.1.3-.2l.2-.2c.1 0 .2-.1.1-.2h-.3c-.2-.1-.4 0-.5.2zm-8.7-6c-.1-.2-.8 0-.7.3-.1.1.8.1.7-.3zm9.4 11.9c.4-.3.7-.7 1.1-1.1l2.7-2.7 2.2-2.5c.3-.4.7-.8.9-1.2.2-.3.2-.8.6-1 .2-.1.6 0 .8-.1 1-.4 1.6-1.9 2.3-2.7 1.9-2.3 4.4-7.8 4.6-8.4.2-.4.3-1.5 1.3-1.8.6-.2.5-1.6.7-2.2.2-.8.3-1.7.8-2.4.9-1.1.9-3 1.1-3.6.3-1.3 2.7-9.8 2.1-16.6-.1-1.3-.1-9.2-2.3-11.7-1.4-1.6.1-3.5-.7-6-.2-.6.7-.9.9-1.5.6-2-.6-3.6-1.6-3.8-.9-.2-2.1-.2-2.5-1.2-.1-.4.6-2.3-.4-4.2-.5-.9-1.3-3.1-7.6-7.9-2.1-1.6-3.6-3.9-5.5-5.7-.6-1-3.8-3.9-4.6-4.6-.6-.4-1.5-2.3-4.2-3.3-.9-.3-6.9-5.2-7.6-5.4-2.6-.8-7-4-7.8-4.2-4.5-1.1-6.2-3.6-7.8-3.8-1.3-.1-4.9-.3-6.8-2.4-1-1.2-2.5-1.4-4-.6-.9.5-3.8-2-7.9-1.5-.9.1-1.6-1.4-4.8-1-3 .4-5-1.6-6.1-2-1-.4-7.4-2-10.3-1.9H132c-6.2-.8-11.6-.8-17.5 0-1.4.4-19.3 5-20.9 5.9-1.4.8-5.1 2-6.1 2.4-2 .9-9.5 3.4-9.8 4.2-.1.4-1.4.5-1.7.8-.2.2-2.1 2.2-4.5 3.1-1.6.6-9 6-10.4 7.2-1 .9-5.5 4.1-6.2 4.5-1.7 1.1-9.4 9.2-10.3 10.6a99.87 99.87 0 0 0-2 3.3c-.2.3-1.3 1.7-1.6 2-.2.2-1 2.7-1.2 3-.3.5-1.7 1.8-1.8 2 0 .2.6 1.7-1.2 3.3-1.2 1.1-2.2 5.2-2.3 5.5-.3.8-1.9 2.7-1.6 4.4.1.7-.3 1.5-.8 2.1-.3.6-.2 2.7-1.4 3.1-1.1.4-.7 2.2-.4 2.7.8 1.5.2 3 .2 3.1s-.4 1.5.2 2.4c.9 1.2-.1 3.3-.1 4-.2 3.8 2.4 4.9 1.6 7.1-.5 1.4.5 2.6.3 4-.2 1.1.7 1.7.9 2 .1.2.9 2.1.8 2.4-.3 2 2.7 5 2.5 8-.1 2.6 2.9 3.7 3.1 3.9 1.5 1.8 1.5 3.9 3.1 5 .1.1 1.9 1.4 2.1 1.5 1 .6.1 1.2.2 1.5 1.3 2.8 4 4.7 4 4.7 6.6 7.5 22.1 17.3 23.6 17.5s2.9.5 4.1 1.4c1.2 1 6.8 3.1 6.8 3.1.8.3 1.7.3 2.5.5.8.3 5.6 2 6.3 2.2 1 .4 2.1 1 5.8 1.9 1.6.4 3.2 1.3 4.8 1.6 1.8.4 3.4-1.2 4.9-.3 1.7 1 4 1.7 5.1 1.9 7.8 1.7 18.8 2 26.7 1.8 0 0 2.5.5 5.2 0 2.7-.1 5.9-1.1 8.6-1.2 4-1.1 8.6-2.1 12.3-4 1.3-.3 2.8-1.7 3.6-1.8 1.8-.7 4.4-3 4.7-3.2s2.7-1.6 2.7-1.6l1.6-1c.5-.5 7-5.5 7-5.5.5-1.1 1.7-1.5 2.7-2.2a1.38 1.38 0 0 1 .3-.4c.3-.4.8-.6 1.2-.9.2-.1.4-.2.6-.4.1-.1.2-.2.2-.3.1-.1.1-.3.2-.4 0-.1.1-.1.2-.1s.2.1.3.1.1-.1.2-.2.1-.2.3-.3.1-.4 0-.5-.3-.2-.3-.4c-.1-.3.2-.5.5-.6.2-.1.5-.1.7.1.2.1.2.4.4.4.2.1.4-.2.4-.4s0-.2.1-.4c.2-.2-.3-.2-.4-.3s.1-.2.1-.3c.1-.3-.2-.4-.5-.4-.2 0-.4.1-.6.3l-.3.3c-.1 0-.2 0-.2.1v.2c0 .1-.2.1-.3.1h-.4c-.2 0-.3 0-.5.1-.1 0-.2.1-.3.2-.2.1-.3.1-.5.1-.5 0-.8.3-1.2.5-.3.1-.6.3-.9.4h-.4c-.1 0-.2-.1-.3 0l-.3.3c-.1.1-.2.1-.3.2s-.1.3-.2.4c-.1.2-.3.3-.4.3-.4.1-1-.1-1.4-.3-.5-.3-.6-1.1-.7-1.6 0-.2 0-.5-.4-.4-.2 0-.3.2-.4.3a3.47 3.47 0 0 1-1.9 1.2c-.4.1-.8.1-1.2.2-.3 0-.6-.2-.9-.1-.2 0-.3.2-.3.4-.1.1-.1.2-.2.4-.2.3-.4.4-.7.3-.2-.1-.6-.3-.3-.5.2-.1.6-.3.5-.6-.1-.2-.3 0-.4 0-.2.1-.4.2-.6.2-.4 0-.8-.1-.9-.6v-.2c0-.1.1-.1.2-.2.1 0 .2-.1.3-.2s-.1-.3-.1-.4.4-.3.5-.5c.2-.3.3-.5.6-.6s.8 0 .9-.3.1-.7.3-1c.3-.4.6-.3.3-.8-.4-.5-.9 0-1.3.2-.2.1-.4.3-.7.3s-.2-.3 0-.4l.6-.6c.2-.3.3-.6.8-.6.2 0 .5.1.6-.1.3-.4 0-.7-.4-.7s-.9.2-1.2.4-.6.4-.9.7c-.3.2-.5.5-.9.3-.1-.1-.1-.1-.2-.1-.2 0-.4.2-.6.4-.4.3-.8.5-1-.2 0-.2.4-.3.5-.5 0 0 1-.1 1.2-.2.3-.1.9-.2 1.1-.5.1-.1.1-.2.2-.3.4-.5-.2-1.2-.7-.9-.4.2-.7.7-1 .9-.2.2-.5.4-.9.4-.3 0-.9-.3-.7-.7.1-.2.5-.2.7-.3s.3-.4.6-.5c.4-.3.7-.5 1.2-.6.3 0 .7-.1.7-.5 0-.2-.2-.3-.3-.2-.2 0-.4.1-.6.1-.3-.1-.7-.1-1-.3-.2-.2-.1-.7-.4-.7-.6 0-.2.3-.3.6-.2.3-1.1.5-1.2.1-.2-.4.3-.8.6-.9s.6-.3 1-.3c.2 0 .3 0 .4-.1s.2-.5.4-.5.3-.3.1-.4c-.1-.1-.4.1-.5.1h-.5c-.4.1-.4.4-.6.7-.2.2-.5.4-.8.5-.4.1-.5-.3-.8-.5-.5-.2-.4.3-.5.6s-.5.3-.8.5c-.3.1-.5.4-.7.6-.6.6-1.4.5-2.1.7-.6.2-.4.2-.7.4-.6.4-1.2-.2-1.8 0-.1 0-.3.3-.5.3-.2.1-.2-.1-.4-.1-.9 0-1.2-.2-1.4-.1-.3.1-.5.2-.6.5-.3.4-1.1.7-1.3.7s-.4-.2-.5-.4a.37.37 0 0 0-.6 0c-.3.2-.3.6-.4.7-.2.1-.5.1-.5-.2.1-.1.2-.2.2-.4.1-.1 0-.3-.2-.2-.1 0-.3.2-.4.3-.3.1-.7.1-.9 0-.1-.1-.3-.1-.4-.1-.1-.1-.2-.1-.3-.1-.2 0-.3.3-.5.3-.2.1-.5 0-.7-.1s-.4-.1-.6-.1l-.5.4c-.3.1-.6 0-1 0-.2 0-2 .1-2.6.2-1.2.2-2.3.7-3.5.8s-6.5.4-7.3.4c-.7 0-4.1-.2-4.5.2-.1.1-.8 0-1 0-.3 0-.3-.4-.6-.5-.7-.3-.1.4-1-.2-.6-.4-1.4-.2-2.3-.2-1.5 0-4.1-.4-4.7-.4-1-.1-1.9-.5-2.5-1.2-.5-.5-1.3-.7-1.4-1.5-.2-1.9.5-4.7.6-5.5.2-.8.4-3.8.7-4 .2-.1 0-.2.2-.4 1.1-1 .7-1.1.9-2.1.3-1.8 1-4.4 3-4.9 1-.2 2.1-.8 2.8-1 .8-.3 2.4-.1 3.6-.6.3-.1.5-.3.8-.3 1.2-.1 2.4.2 3.6.1 1.1-.1 2.4-.2 2.7-.2.5.1.1-.4.3-.5.6-.2.5.5 1.2.7.5.1 2.5.2 3 .2.1 0 0-.2.1-.4.4-.4.7.4.9.5.5.4 9.2 1.4 9.8 1.5a5.88 5.88 0 0 0 3.6-.5c.5-.2 2.4-1.1 2.7-1.4.1-.2-.1-.4 0-.5.3-.4.7-1.1.6-2 0-.3.1-.5.2-.8.1-.4-.1-.7-.1-1.1s.1-.8.3-1.1c.4-.5.5-1.1.3-1.4-.4-.7-1-1-1.1-1.1-.3-.2 0 0 0-.4 0-.2-.7-.1-.7-.1s-1.3-.1-1.7-.2c-1.2-.4-2.3-.5-3.6-.6-2 0-3.8-.8-5.8-.6-.3 0-1 .2-1.2.2-.3 0 0-.6-1.2-.5-1.1 0-2.2-.2-3.2-.5s-3.7-.1-4-.3c-.2-.1-.4 0-.6-.1-.4-.1-.6-.7-1.4-.7-.2 0-.3-.3-.5-.3-.3 0-.9.1-1.1 0-.4-.3-1.2-.5-1.3-1-.2-1 1.8-2.3 2.4-2.8.6-.4 1.3-1.2 2.1-1.1.5 0 .7-.3 1-.7.7-.8 3.4-4.4 4.2-5.1.9-.7.2-1.6 1.4-2.5.4-.3.8-1.5 1-1.7.6-1 .4-2.8 1.4-3.5.1-.1.3-.4.5-.8.1-.4-.2-.7-.3-.8-.2-.3-.1-.7-.1-1.1 0-.3-.1-2.6-.1-3 0-.7.3-1 1-1 .5 0 0-1-.1-1.4-.2-.9-1.1-2.2-2.5-2.3-1.7-.2-3 1.1-4.1 2.3-.7.8-2.7 3.6-3 3.8-.6.3 0 .6-.7 1.4-.2.3-.6.2-.8.5s-.7 1.2-.7 1.6c0 .3.1.6-.2.8-.8.6-.9-.2-1.2 0s-.4.5-.5.6c-.8.7-1 1-1.8 1.2-.5.1-1.5.2-1.8.7-.2.4-1.3.4-1.3-.3 0-.5.5-2.4.5-2.6.3-.9-1.2-1.5-.5-2.4.4-.5.3-1 0-1.5-.1-.2-.4-1.2-.5-1.4-.4-.5.2-.7-.3-1.5-.3-.5-.7.3-.8-.8-.1-.7-.7-.9-1.1-1.2-.5-.4-1-.9-1.5-1.2-1.4-1-3-1.7-4.6-2-1.7-.4-3.4-.5-5.1-.2-.4.1-1.1 0-1.1-.4 0-.1-.2-.1-.3-.2-.3-.2-1 .1-1.4.2-1.1.4 0 .9-.6 1.1-.8.3-2.8.9-3.4 1-.2.1-.7.2-1.3.2s-.6.5-1.3.8c-1.3.6-1 3.7-.9 4.5 0 .1.1.5.4.4s.6.3.6 1c-.1.7-.1 1-.3 1.8s.3.3.2 1.1c0 .6.8 2.6.7 3.2 0 .2.2.4.2.5.1.1.2.2.3.2.4 0 .3.8.6 1.5.2.5.4 1.2.8 1.5.3.2.3.5.5.7.2.3.3.5.2.7-.2.2-.8.7-1.1.6-.4-.1-1.5-.2-1.9-.4-.8-.3-1.7.2-1.9 0-.2-.3-.6-.3-1-.4-.3-.1-.4.3-.5.2-.4-.1-.4-.4-.7-.6-.5-.6-1.2-.6-2-.9-.9-.4-1.9-.7-2.8-1.3s-3.9-1.8-4.1-2.1c-.2-.5-1.1-.3-1.2-.4-.1-.3-.9-.4-1-.7 0-.3-.6-.3-.9-.5-.2-.1-.7-.4-1-.3-.3.2-.6.3-.9.1-.2-.1-.3-.3-.5-.3-.6-.2-1 .1-1.5.4a6.73 6.73 0 0 0-1.5 1.4c-.3.3-.4.7-.6 1.1-.2.3-.5.5-.6.9-.2.4-.1.8.3.9.5.1 0 .5.4.7.6.3.8 1.4 1.5 2.1.9.8 1.2 2.1 1.4 2.7.4.7 1.8.2 2 1.1.1.4.9 1.1 2.4 2.4.5.5 2.8 1.7 3.6 1.8 2.3.3 3.3 1.3 4.2 2 .4.3 1.3 0 2.3 1.9.4.7.6 3.2.8 4.4.4 2.7 1.5 2.2 1 3.2-.6 1.2.5 2.6.5 5.7 0 .7-.4 1.9-.7 2.8-.7 1.7.5 4 .2 4.7-.4 1-.6 4.8-1.5 5.6-.4.3-1 .2-1.5 0-.8-.4-3.4.3-4-.2-1.1-1-2.4-.9-3.2-1-.7-.1-1.6-.7-2.2-.9-1.1-.6-5.6-2.2-7.3-3.1-4.2-2.2-9.9-4.6-10.3-6.9-.2-.9-6.4-4.9-7.4-6.3-.5-.7-1.6-1.9-1.8-2.3-.3-.5-.4-1.6-.7-2.1-.8-1.1-1.8-1.2-2.2-3.4-.1-.8-.7-.4-1.6-2.6-2.3-5.7-2-12.3-1.9-14.8.1-2.1 1.9-6.8 2.5-8.4.3-1 1.6-1.6 1.8-3.4.1-.5 2.7-2.3 3.7-3.9.8-1.4 2.7-3 4-3.8.7-.5 10.5-7.7 11.4-8.7C85 78.4 86 77 88 77c.5 0 1.6-.7 1.6-1.1.2-1.1 10.2-3.5 11.8-5.2.5-.5 3.5-1.4 5-1.7.4-.1.3.4 1.3-.5.7-.7 2.3.5 3.3-.5 1.2-1.2 1.5-1.4 3.9-1.4 2.3 0 2-1.2 3.9-1.3 1-.1 2.6-.6 3.2-1.6.4-.7 4.8-1.1 5.6-1.8 2.1-1.6 3.6.2 6.2-.4.3-.1 1.4.3 2 .3.6-.1 1.6-.9 1.9-.2.2.5 4.2.3 5.1.2.3 0 .9-.4.9-.1-.1.5 2.5.2 3 .7.7.6 1.7 1.2 3.1.7.8-.2 3.7.2 4.8.6.7.3-.6.7 2.2.8 1.8.1 8 3.8 9.3 4 1.6.1 2 1.7 3.6 2.3 2.9 1.1 6.4 3.5 13.5 9.1.3.3.7 1.5 1.1 1.5 1.8-.1 3.6 3.4 4.4 4.3.2.3 1.4-.4 1.3 1.7 0 .3.9-.1 1 1.3 0 1.7 3 2.6 3.7 6.2.1.4.5.6.6 1 .5 1.3 2.5 7.3 2.5 9.5 0 .7.4 4.6-.2 7.6-.5 2.6-1.5 5.1-2.5 7.6-.6 1.5-2 3.6-2.1 4.1s-.5 1.1-.3 1.6c.1.4.1.9-.3 1-.5.2-1.1.5-1.2 1.1 0 .4-.9.4-.9.9s-1 .5-1 1.1c0 .4-.9.7-.7 1.2.1.3-.3.3-.7.4s-1.3 1.5-1.3 1.7c0 .3-.5.1-.6.9-.1.5-.6.5-.8 1-.3.4-.6.5-.6.5-.2.3-.2.7-.2 1.1 0 .3-.6 1.5.1 1.4.3 0 .4-.4.6-.6.3-.3.7-.5 1.1-.7.5-.3 1.1-.4 1.4-.9.1-.2.4-.9.8-.9.1 0 .2 0 .3-.1.1 0 .2-.2.3-.3.2-.3.4-.6.7-.9.1-.2.5 0 .6-.2s-.1-.3.1-.3c.1-.1.3-.1.5-.2a1.38 1.38 0 0 1 .4-.3c.3-.2.5-.4.8-.2.4.3-1 1.5-1.1 1.6-.4.4-.5.9-.8 1.3-.3.3-.6.6-.8.9l-.3.3a.76.76 0 0 0-.2.4c-.1.2-.4.4-.6.5-.2.2-.3.4-.4.7-.3.3-.4.5-.3.9.1.3.3.4.5.2.2-.1.3-.4.4-.6s.2-.4.4-.6.4-.3.6-.4.3-.3.4-.4c.3-.4.6-.8 1-1.2.2-.2.4-.5.6-.6s.3-.1.4-.2c.1-.2 0-.5.3-.5.2 0 .2.3.2.4 0 .2.1.2.3.2.3 0 .4-.1.5-.3s.2-.5.4-.6.4-.2.6-.4c.3-.3.6-.5.8-.8l.6-.6c.2-.2.3-.5.5-.5.2-.1.3 0 .4 0 .2 0 .1 0 .2-.2.1-.1.2-.2.3-.2.3 0 .3.4.3.6v.3c.1.1.2.1.4.1s.3 0 .3.2c0 .1-.2.3-.3.4-.3.3-.6.5-.8.9-.1.1-.2.3-.4.4a6.42 6.42 0 0 0-1 1.3c-.3.3-.6.7-.9 1-.2.2-.3.4-.5.6-.3.2-.3.4-.5.7-.2.4-.5.5-.7.8-.1.2-.1.4-.2.6s-.2.3-.3.5c-.4.4-.6.8-.8 1.3-.1.2 0 .6.2.4.2-.1.2-.4.4-.5s.4-.1.6-.2c.3-.1.5-.3.6-.5s.1-.6.3-.7c.1-.1.4-.1.6-.2s.5-.1.7-.2c.2 0 .5-.1.7-.2l.2-.2c0-.1.1-.2.1-.3s-.1-.1 0-.2.1-.2.2-.3c0-.2-.1-.3-.2-.4-.2-.1-.5-.3-.5-.5 0-.1.1-.2.2-.4.1-.1.1-.2.1-.4v-.3c0-.1.1-.2.1-.3l.3-.3c.3-.1.4.3.6.3s.3.1.5.1h.6a.76.76 0 0 0 .4-.2c.1-.1.1-.2.1-.3 0-.2-.2-.3-.3-.5 0-.2.1-.4.2-.5.1-.2.3-.2.5-.2.4.1.8.6 1.2.4.2-.1.2-.3.1-.4 0-.1-.1-.1-.2-.2s-.1-.1-.1-.2c-.1-.3 0-.6.2-.8s.4-.5.7-.5c.1-.1.2-.1.4-.1h.1c.2 0 .3.2.3.4s0 .4-.1.5c-.1.2-.4.5-.1.8.2.2.5.2.8.2h.4.3c.2.1.3.3.2.5-.1.3-.3.4-.4.7-.1.2-.4.4-.7.6-.2.1-.3.1-.5.2-.3.1-.5.2-.5.4-.1.3 0 .4.3.4s.6.2.6.5c0 .5-.5.8-.9 1.1-.2.1-.4.2-.5.3s-.2.1-.2.2l-.2.3c-.2.1-.4-.2-.5-.3s-.2-.1-.3 0c-.1 0-.1.1-.1.1-.1.1-.2.1-.2.2v.3.5c0 .1-.1.3-.1.4 0 .2.4.1.5 0s.2-.3.3-.3c.2-.2.4.3.4.4 0 .2-.2.2-.2.3-.1.2.1.3.2.3.2.1.8-.2.8-.5 0-.2-.3-.5 0-.5.2 0 .3.1.4.2s.2.2.4.2.3-.3.4-.4c.2-.2.4-.3.6-.5.3-.2.8-.3 1-.6.3-.3.5-.8.6-1.2.1-.2.1-.5.3-.6.3-.3.9-.2 1.2-.5.1-.1.2-.3.3-.5s.1-.3.2-.4c.1-.2.1-.3.1-.5s.1-.4.2-.5a.45.45 0 0 1 .5 0c.3.2.7-.1.9.1.3.2 0 .7-.2.8-.7.5-.5 1.3-1.1 1.8-.2.2-.5.2-.7.4-.3.3-.2.8-.4 1.1-.1.1-.3-.1-.5-.1-.1.1-.1.2-.1.3v.2c-.1.1-.4.4-.2.5.1.1.3.1.4.1.2 0 .2 0 .3-.2 0-.1.1-.1.2-.1s.2.1.2.2c.1.1.1.2.2.1l.1-.2c.1-.1.1-.2.3-.2.1 0 .1.1.1.1.1.2.4.1.5 0l.3-.3c.2-.2.3-.5.5-.7s.4-.4.6-.5c.1-.1.3-.1.5-.1.2-.1.3-.2.5-.4.3-.2.6-.3.9-.5.1-.1.4-.4.5 0v.2c0 .1.1.1.1.2 0 .3-.6.5-.7.7v.4c-.1.4-.4.3-.7.5s-.6.6-.8 1c-.1.2-.1.2 0 .4.1.1.2.2.2.3-.1.1-.3 0-.4 0-.3.1-.2.4-.2.6-.1.2-.3-.2-.4.3-.1.2 0 .5-.1.7s-.4.4-.6.5c-.1 0-.1 0-.2.1-.1 0-.1.1-.2.1-.1.1 0 .2-.1.3 0 .1-.1.1-.2.2s-.3.2-.3.4c0 .1 0 .2.1.2s.1 0 .2-.1h.1s.1 0 .1-.1l.1-.1c.1-.1.2-.1.3-.2s.2-.1.3-.2c.4-.3.8-.7 1.2-1.1s.7-.9 1.1-1.4c.2-.2.4-.4.6-.5.5-.1.3.3.1.6-.1.1-.1.2-.2.3s-.2.1-.3.1c-.1.1-.2.3-.3.4-.2.3-.3.6-.5.8-.2.1-.4.2-.5.4s-.2.4-.3.7c-.1.2-.1.4.1.4.4.1.4-.2.6-.4s.6-.2.8-.4.3-.4.3-.6c0-.1.2-.5.4-.5 0-.3.3-.2.4-.4.1-.1 0-.1.2-.2s.6-.2.6.2c0 .2-.3.4-.4.6-.4.5-.8 1-1.1 1.5s-.2 1.1-.5 1.7c-.2.3-.4.6-.6.8s-.5.3-.7.5a3.04 3.04 0 0 0-.5.7c-.3.4-.6.6-1 .8l-1 1c-.1.2-.2.4-.4.6s-.4.3-.5.7c-.2 0-.2 0-.3.1-.1 0-.2.1-.2.2-.1.1-.2.2-.3.4 0 .1-.2.2-.2.3-1.1 1.7.1.8.2.7zm2.3-6.5c-.4.2-1.1.6-1 1.2.3.1 1.5-1.5 1-1.2zm-7.3-10.1h-.4c-.5-.1-.5-.3-.5.3 0 .1-.2 1 0 1 .3 0 .6-.5.7-.6 0-.1.5-.7.2-.7zm-.4 3c-.1.1-.1.3 0 .3.1.1.3 0 .5-.1s.5 0 .8-.2c.2-.1.6-.6.4-.6a1.1 1.1 0 0 0-.8 0c-.1.1-.2.2-.4.3-.3.1-.4.2-.5.3zm-11.3 21.8c.3 0 .8-.3 1.1-.4 0 0 .8-.5.6-.5-.5-.1-1 .1-1.4.3-.2.1-.3.1-.4.3-.1.1-.2.3.1.3zm14.4-6.6c.4 0 .5-.7.3-.8s-.6.7-.3.8zm-4.5-11.7h.2c.1-.1.3-.2.2-.3 0-.1-.2-.2-.3-.3 0 0-.2-.3-.2-.1 0 .1-.1.2-.2.3v.3c.2-.1.2.1.3.1zm.3 14.4c.1 0 .2-.1.2-.1.1-.1.2-.1.2-.2s-.1-.1-.2-.2c-.1 0-.2 0-.3.1s-.2.1-.3.2c-.1 0-.2.1-.1.2s.4 0 .5 0zm2.7-12.2c0-.2 0-.2-.2-.2-.1 0-.4-.1-.5 0s0 .2 0 .3v.3c0 .1 0 .5.2.5h.1c.1-.1.1-.3.2-.4 0-.2.2-.3.2-.5zm-1.8 11.1c.3 0 .5-.1.8-.3.4-.3.9-.9.6-1.5-.1-.2-.5-.2-.7-.2-.3 0-.5.1-.7.3-.4.2-.7.7-.5 1.2 0 .2.2.4.5.5zm283.8-21.5h-26.1l-6.8-16.8h-26.1l-6.4 16.8h-25l28.9-74.7c1.2-4 4.6-6.9 15.9-6.9 11.4 0 14.3 2.9 15.5 6.9l30.1 74.7zM445 100.6l-8.8-23.5-8.6 23.5H445zm-53.3 23.7v-.3c0-6.9-3.8-10.4-11.5-10.4h-24.6V65.4c0-7.9-3.8-11.6-10.9-11.6h-3.6c-6.9 0-10.5 3.8-10.5 11.6v69.9h49.6c7.8.1 11.5-3.8 11.5-11zm-103-11.7h-9.8v22.8h-25.1V68.3c0-9 4.5-13.9 12.7-13.9h21.4c23.1 0 35.8 10 35.8 29.4 0 19.3-12.2 28.8-35 28.8zm10.6-28.8c0-6.8-4.1-10.5-12-10.5h-8.8v21h9.1c7.7 0 11.7-3.7 11.7-10.5zm61 89.8l5.3 6.6c.2.3-1.1 2.5-4.2 2.5-2.3 0-3.4-1-4.9-3.1l-3.4-4.5h-1.3v7.4h-7.3V163c0-2.6 1.3-4.1 3.7-4.1h7.3c6.6 0 9.8 2.7 9.8 7.7.1 3.5-1.7 6-5 7zm-2.2-6.4c0-1.8-1.1-2.8-3.4-2.8h-3v5.5h3.1c2.2.1 3.3-.9 3.3-2.7zm147.7 4.3l-8.5-11c-1-1.2-1.6-1.7-3.3-1.7h-.7c-1.9 0-3 1.1-3 3.4v20.4h6.8V170l8.6 11.2c1 1.2 1.5 1.6 3.3 1.6h.6c1.8 0 3-1.1 3-3.4V159h-6.8v12.5zm-196.6 11v-17.2h3.8c2.3 0 3.4-1.1 3.4-3.2v-.1c0-2-1.1-3-3.4-3h-15.1c-2.2 0-3.4 1-3.4 3v.1c0 2.1 1.2 3.2 3.4 3.2h4v17.2h7.3zm103.7-21.8l8.8 21.8h-7.6l-2-4.9h-7.6l-1.9 4.9h-7.3l8.4-21.8c.4-1.2 1.4-2 4.6-2 3.4 0 4.2.9 4.6 2zm-2.1 11.7l-2.5-6.8-2.5 6.8h5zm42.4-13.6h-1.1c-1.8 0-3.1 1-3.1 3.1v20.6h7.3v-20.6c.1-2.1-1.2-3.1-3.1-3.1zm-15.4 23.7v-17.2h3.8c2.3 0 3.4-1.1 3.4-3.2v-.1c0-2-1.1-3-3.4-3h-15.2c-2.2 0-3.4 1-3.4 3v.1c0 2.1 1.2 3.2 3.4 3.2h4v17.2h7.4zm-154-11l-8.5-11c-1-1.2-1.6-1.7-3.3-1.7h-.7c-1.9 0-3 1.1-3 3.4v20.4h6.8V170l8.6 11.2c1 1.2 1.5 1.6 3.2 1.6h.6c1.8 0 3-1.1 3-3.4V159h-6.9v12.5zm177.2-.8c0-7.1 5.2-12.3 12.5-12.3s12.4 5.1 12.4 12.3-5.2 12.3-12.4 12.3c-7.3 0-12.5-5.1-12.5-12.3zm7.3 0c0 3.5 2.1 5.8 5.2 5.8s5.2-2.3 5.2-5.8-2.1-5.8-5.2-5.8c-3.2 0-5.2 2.2-5.2 5.8zm-265-26.8c.1 0 .4-.1.4-.3 0-.1 0-.3-.1-.4-.1-.2-.3-.4-.6-.3-.2.1-.4.3-.6.5-.2.1-.4.2-.7.3-.2.1-.4.3-.6.4-.1.1-.4.6-.2.8.1.1.5.1.6 0 .2-.1.4-.2.1-.3-.3-.2.3-.3.4-.3.2 0 .4-.1.7-.2.2 0 .4-.1.6-.2zm329.9 16.8l8.8 21.8h-7.6l-2-4.9h-7.6l-1.9 4.9h-7.3l8.4-21.8c.4-1.2 1.3-2 4.6-2 3.4 0 4.2.9 4.6 2zm-2.2 11.7l-2.5-6.8-2.5 6.8h5zm31.6 6.9v-.1c0-2-1.1-3-3.4-3H552v-14c0-2.3-1.1-3.4-3.2-3.4h-1.1c-2 0-3 1.1-3 3.4v20.4h14.5c2.3-.1 3.4-1.2 3.4-3.3zm-303.8-20.5c-1.8 0-3.1 1-3.1 3.1v20.6h7.3v-20.6c0-2.1-1.3-3.1-3.2-3.1h-1zm65.2 23.7h15.8v-6.3h-12.2v-2.7h9.1v-5.9h-9.1v-2.4h12.2v-6.3H324c-2.4 0-3.7 1.4-3.7 4.1v15.9c0 2.4 1.5 3.6 3.7 3.6zm52.9-12.6l8.6 11.2c1 1.2 1.5 1.6 3.3 1.6h.6c1.8 0 3-1.1 3-3.4v-20.4h-6.8v12.6l-8.5-11c-1-1.2-1.6-1.7-3.3-1.7h-.7c-1.9 0-3 1.1-3 3.4v20.4h6.9v-12.7zm-183.3-10.7c-.2 0-.4 0-.6.1-.1.1-.2.1-.3.1h-.5c-.1.1-.1.1-.1.2.1.1.2.2.3.2.3.1.6.2.8.4.1.1.2.3.4.4s.4-.1.4-.3c0-.1 0-.2.1-.4 0-.1.1-.2.1-.3 0-.2-.4-.3-.6-.4zm-27-5.6c-.1.1-.2.2-.4.2s-.3-.1-.5.1c-.3.2 0 .3.2.3a.9.9 0 0 1 .5.1c.4.1.7.1.9-.3.1-.1.1-.3 0-.4-.1-.4-.5-.1-.7 0zm-2.3 1.1c-.1.1-.3.1-.5.1-.1 0-.2 0-.3.2-.1 0-.1.3-.1.3.1.1.3 0 .4-.1s.2-.1.4-.1c.3 0 .4-.2.3-.5-.1-.1-.2 0-.2.1zm-19.2-64.9c.2.3.2.7.2 1s.1.5.2.7c.2.3.5.3.7.3.3.1.6.2.9.2.1 0 .2-.2.3-.3.2-.5.9-.6.8-1.2-.1-.5-.2-.9-.4-1.3s-.6-.7-.9-1c-.1-.1-.6-.1-.8-.1-.3-.1-.5-.2-.8-.2-.2.1-.2.2-.2.4 0 .3-.3.3-.2.8v.4c0 .1.1.2.2.3zm3.5-8.3c-.5 1.3-2.9 4.5-6.8 5.2-1.4.3-3.2.9-4.5-.1a6.53 6.53 0 0 0-1.3-.9c-.7-.3-.8.1-1.3-.3-.1-.1-.4-.8-.3-1.2.1-.3-.2-.6-.3-.8-.1-.3-.6-.9-.5-1.5 0-.2-.2-1.3.3-2.1.2-.2.8-1.4.2-1.5-.2 0-.3-.6.2-1 .6-.5.9-2.6 3-3.2 1.5-.5 2.5-2.3 4.1-2.4.8-.1 1.6 0 2.3.3s1.5.4 1.9 1c.3.4 1.5 1 1.9 1.8.3.6 1 1 1.2 1.7.1.3.4 1.6.4 1.9 0 .7-.3 2.7-.5 3.1zm-3.9-4c-.1-.3-.9-1-1.2-1.1-.5-.2-1-.2-1.5-.3-1-.3-1.7.6-2.5.8-.4.1-.5.5-.8.6-.8.5-1.5 2.7-1.6 3.2-.4 1.2.8 2 1.3 2 .7 0 1.4-.1 2-.2 1-.4 1.9-1.1 2.6-1.9.5-.6.8-1.3 1.3-1.9.7-.9.5-1.2.4-1.2zM552 136c6.2 0 10.1-3.9 10.1-11.6v-70h-23.5v43l-29-37.8c-3.5-4.1-5.4-5.9-11.2-5.9H496c-6.4 0-10.3 3.9-10.3 11.6v69.9h23.5V92.1l29.6 38.4c3.4 4 5.1 5.5 11.1 5.5h2.1zm-379.4 15.7c.1-.3-.1-.3-.3-.1-.2.1-.4.3-.6.4s-.2.1-.1.3c.1.1.3.4.5.4s.1 0 .1-.2c0-.1 0-.3.1-.4s.2-.2.3-.4zm12.4-12.1c.1 0 .4-.3.3-.4s-.3 0-.3.1c-.1 0-.2.1-.3.2-.1.2.2.1.3.1zm1 2.5c.1 0 .4-.4.5-.5s.3-.6 0-.5c-.4.1-1 1.2-.5 1zm-36.5-67.8c.9.5 1.7-.4 2.5-.6.3-.1.8-.2.7-.7-.4-.7.7-1 .9-1.6l-.1-.2c-.4-.5-3.4 0-3.6.3-.5.6-1.4.4-1.8 1.2-.1.9 1 .9 1.4 1.6zM131.1 85c-1.1.5-2.8.7-3.1 2.2 0 .4.4.7.8.8h1.2c.2-.1 1-.4 1.1-.5.3-.2.6-.3.9-.5s.6-.6.4-.9c0-.1-.2-.2-.2-.3 0-.6-.5-.9-1.1-.8zm1.3-8.4c-.3-.2-1.2.1-2-.4-.4-.3-1-.2-1.6-.1-.4.1-.9.3-1 .6-.1.2.1 1 .2 1.2s1.1.6 1.2.7c.3.1 1.1.2 1.7 0 .2-.1 1-.1 1.5-.5a1.93 1.93 0 0 0 .3-1c-.1 0-.2-.4-.3-.5zm93.9 8.3c-.2-.8-1-1.1-1.8-1.1a.76.76 0 0 0-.4.2c-.1.1-.2.2-.2.3s-.1.3-.1.4a.9.9 0 0 0 .1.5 1.38 1.38 0 0 0 .3.4l.3.3c.2.2.4.4.7.5h.2.2c.5-.3.6-.9.7-1.5zm-76.4-2.3c0 .6.4.7.6.8.1.1.2.2.4.3.6.3 1.4.3 2.1.3.3-.1.5-.3.9-.2.5.1.4-.7.8-.9.2-.1.5 0 .6-.3.1-.4-.3-.6-.6-.7-.1 0-.9-.2-1.1-.3-.3-.1-.6-.1-.9-.2-.6-.1-1.3-.2-1.8 0-.2.1-.4 0-.6 0-.4.1-.6.4-.3.7-.2.3-.1.3-.1.5zm-7.9-13c.3.3.7.2 1 0 .2-.1.4-.2.6-.4s.2-.5.4-.7c.3-.4.7-1 .6-1.5-.1-.8.1-1.9-.5-2.4-.4-.2-.6.1-.8.3-.5.3-.8.9-1 1.4-.3.6-.5 1.2-.3 1.9-.1.6-.5 1 0 1.4zm-8.4 3.2c.4.9 1.8 1 2.3 1 .2 0 .1-.4.7-.4.2 0 .1-1.1-.2-1.5s-.5-1-.7-1.5c-.1-.2-.7-1-.9-1.2-.4-.4-1.3-.3-1.3.3 0 .7 0 2-.1 2.3 0 .4 0 .7.2 1zm3 19.9c0 .1.2.4.3.5s.5.5 1 .4c.2-.1.3-.3.4-.5.3-.4.7-.9.9-1.4a2.12 2.12 0 0 0 0-1.9c-.3-.2-.6-.6-1-.6-.5-.1-1.7 2.1-1.6 3.5zm47.6 50.6c-.2.2-.9.4-.4.8.4.3.8-.2.9-.5s.6-.8.4-1c-.3-.2-.6.5-.9.7zm-5.2 11.5c0 .1.1.3.3.4.7.4.4-.1.7-.6.1-.2.4-.4.3-.6-.2-.3-1.4.3-1.3.8zm-3.9-1.4c.2.1.3-.1.5-.2h.4l.4-.4c.2-.2.1-.2.1-.4 0-.3.3-.6.1-.9-.3-.4-.5.4-.6.6-.2.5-.7.1-.9.5-.1.1 0 .3-.1.4-.1.2-.1.4.1.4zm8.3-4h.1c.2 0 .3-.2.3-.5-.1-.2-.5-.1-.6 0-.2.2 0 .5.2.5zm-5.3 6.6c.2.1.9.2.8-.2 0-.1-.1-.3-.2-.3-.1-.2-.1-.2-.3-.1h-.5c-.2-.1-.5-.5-.6-.4s0 .5 0 .5c.2.3.5.5.8.5zm8.5-8.8c.1-.1.2-.1.2-.3s-.2-.3-.4-.2-.3.2-.5.3a1.69 1.69 0 0 1-1 .3c-.2 0-.5 0-.7.1-.1 0-.4.1-.4.2-.1.1 0 .3 0 .5.1.4.7.4 1 .4s.6-.1.9-.3.5-.3.7-.5c.1-.3.1-.4.2-.5zm-9.8 6.6c.2-.1.3-.1.4-.2.2-.1.2-.2.3-.3.2-.2.6-.4.6-.7.1-.5-.5-.1-.7 0s-.4.2-.5.4c-.2.1-.3.3-.5.5-.1.1-.2.2-.1.3.3.2.4 0 .5 0zm8.8 7.4c.1 0 .2-.1.2 0l.2.2c.2.1.2-.3.2-.4 0-.2-.3-.2-.4-.2s-.2.1-.2.1h-.3c-.1 0-.2 0-.3-.1-.2-.1-.3-.2-.5-.2h-.2c-.1.1 0 .2 0 .3v.3c0 .1.1.1.2.2s0 .3-.1.4c0 .1-.1.1-.1.2v.2c-.2.3-.3.6.1.7s.9 0 1.1-.3c.1-.3-.3-1.2.1-1.4zm4.9-17.4c.2-.1.1-.4-.1-.4s-.6.2-.4.4c0 .1.3.1.5 0zm.7-5.3c.1-.2.3-.4.4-.6.1-.1.2-.5.1-.6h-.1c-.2-.1-.6.3-.7.4-.4.4-.8.8-1.1 1.4-.1.3-.4.4-.6.6-.1.1-.2.2-.1.3s.5-.1.6-.1a1.38 1.38 0 0 1 .4-.3c.1-.1.2-.1.4-.2.1-.1.2-.2.2-.3l.3-.3c0-.1.1-.2.2-.3zm-15.9 9.4c.7.6 1.7-.2 2.3-.9.2-.6 1.1-1.2.6-1.8-.3-.3-1.9.4-2.7 1.1-.5.5-.9 1-.2 1.6zm7.2-5.9c.2-.3.4-.5.6-.7 0-.1.2-.2.2-.3.1-.1.1-.3-.1-.4-.3-.1-.5.2-.7.4-.1.1-.3.2-.4.3s-.2.2-.2.3-.1.2-.1.3c-.2.3-.3.5-.6.5a2.39 2.39 0 0 0-.9.2c-.2.1-.3.4-.4.6s-.1.4-.2.6a1.38 1.38 0 0 1-.3.4c-.1.2-.2.5-.1.7.2.2.6-.3.8-.4.3-.2.5-.5.8-.7.5-.5 1-1 1.4-1.5 0-.1.1-.2.2-.3zm-4.1 18.7c-.1.2-.6.5-.6.8 0 .4.5.4.8.4.8.1 2 .2 2.5-.5.2-.3.4-.9.2-1.2-.3-.5-.6-.1-1 0-.8.2-1.4-.3-1.9.5zm2.4-19.9c.2-.2.7-.4.7-.7v-.1c0-.2-.3-.1-.5 0-.4.2-.8.9-.9 1.3.4.3.5-.2.7-.5zm8.4 4.7c.2-.1.4-.2.5-.4.2-.2.4-.4.6-.5.1-.1.2-.1.3-.2.1 0 .3-.1.2-.2h-.2-.3c-.1 0-.2 0-.3-.1s-.2-.1-.3 0c0 .2 0 .4-.2.5-.1.1-.3.2-.5.2a.78.78 0 0 0-.4.4c-.1.3.2.3.4.3h.2zm-8.6 11.3c.1-.1.1-.2.1-.3s0-.1-.1-.1-.2.1-.3.2c-.1 0-.3.1-.4.1 0 .1-.2.1-.2.2s.1.2.2.3.2.2.4.2c.1 0 .2-.2.1-.3 0 0-.1-.1-.1-.2.1 0 .2 0 .3-.1zm.6-1.4s.2-.5 0-.5c-.3.1-.4.4-.7.6-.2.1-1.2.6-1.2.8 0 .1.3.2.4.2.2 0 .1-.1.2-.2s.2-.1.3-.2.2-.2.4-.2c.1-.2.4-.3.6-.5zm-1.7 2.2c-.1 0-.2.1-.2.1-.1.1-.3.2-.2.4.1.1.2.1.3.1h.2c.1 0 .1-.1.1-.2s.1-.1.1-.2c0 0-.1-.1-.1-.2-.1-.1-.2-.1-.2 0z" fill="#0072ce"/><path d="M38.7 272.1v20.6c0 2.1.5 3.6 1.5 4.8 1 1.1 2.5 1.7 4.5 1.7s3.5-.6 4.5-1.7 1.6-2.7 1.6-4.8v-20.6h8.4v20.6c0 3.1-.7 5.7-2 7.8s-3.1 3.7-5.3 4.8-4.7 1.6-7.4 1.6-5.1-.5-7.3-1.6c-2.1-1.1-3.8-2.7-5.1-4.8-1.2-2.1-1.9-4.8-1.9-7.8v-20.6h8.5zm51.5 9.9c1.9 2.1 2.9 4.9 2.9 8.6v16h-8.3v-14.9c0-1.8-.5-3.3-1.4-4.3s-2.2-1.5-3.8-1.5-2.9.5-3.8 1.5-1.4 2.4-1.4 4.3v14.9H66v-27.4h8.4v3.6c.9-1.2 2-2.2 3.4-2.9s3.1-1.1 4.9-1.1c3 .1 5.6 1.1 7.5 3.2zm24.7 17.4v7.1h-4.3c-3 0-5.4-.7-7.1-2.2s-2.6-3.9-2.6-7.3v-10.9h-3.3v-7h3.3v-6.7h8.4v6.7h5.5v7h-5.5v11c0 .8.2 1.4.6 1.8s1 .5 2 .5h3zm6-24.4c-.9-.9-1.4-1.9-1.4-3.2s.5-2.4 1.4-3.3 2.1-1.3 3.6-1.3c1.4 0 2.6.4 3.6 1.3.9.9 1.4 2 1.4 3.3s-.5 2.3-1.4 3.2-2.1 1.3-3.6 1.3-2.7-.4-3.6-1.3zm7.8 4.2v27.4h-8.4v-27.4h8.4zm15.2-9v36.3h-8.4v-36.3h8.4zm57.2 9l-7.4 27.4h-9.3l-4.3-17.8-4.5 17.8h-9.2l-7.5-27.4h8.4l3.9 19.6 4.6-19.6h8.9l4.7 19.5 3.8-19.5h7.9zm29.6 15.7h-19c.1 1.7.7 3 1.6 3.9 1 .9 2.2 1.3 3.6 1.3 2.1 0 3.5-.9 4.4-2.7h8.9c-.5 1.8-1.3 3.4-2.5 4.9-1.2 1.4-2.7 2.6-4.5 3.4s-3.8 1.2-6 1.2c-2.7 0-5.1-.6-7.2-1.7s-3.7-2.8-4.9-4.9-1.8-4.6-1.8-7.5c0-2.8.6-5.3 1.7-7.5 1.2-2.1 2.8-3.8 4.9-4.9s4.5-1.7 7.2-1.7c2.6 0 5 .6 7.1 1.7s3.7 2.7 4.8 4.8c1.2 2.1 1.7 4.5 1.7 7.2.2.8.1 1.6 0 2.5zm-8.4-4.7c0-1.4-.5-2.6-1.5-3.4a5.73 5.73 0 0 0-3.7-1.3c-1.4 0-2.6.4-3.6 1.2s-1.6 2-1.8 3.5h10.6zm24.8-4.8c1.1-2.1 2.5-3.8 4.3-4.9s3.9-1.7 6.1-1.7c1.9 0 3.6.4 5.1 1.2s2.6 1.8 3.4 3.1v-3.9h8.4v27.4H266v-3.9c-.8 1.3-2 2.3-3.4 3.1-1.5.8-3.1 1.2-5.1 1.2-2.2 0-4.3-.6-6.1-1.7-1.8-1.2-3.3-2.8-4.3-5-1.1-2.1-1.6-4.6-1.6-7.4 0-2.9.5-5.4 1.6-7.5zm17.2 2.5c-1.2-1.2-2.6-1.8-4.2-1.8-1.7 0-3.1.6-4.2 1.8-1.2 1.2-1.7 2.8-1.7 4.9s.6 3.8 1.7 5c1.2 1.2 2.6 1.8 4.2 1.8 1.7 0 3.1-.6 4.2-1.8 1.2-1.2 1.7-2.9 1.7-5 0-2-.6-3.7-1.7-4.9zm29-7.7c1.5-.9 3.1-1.3 4.9-1.3v8.9h-2.3c-2.1 0-3.7.5-4.7 1.3-1 .9-1.6 2.5-1.6 4.7v12.7h-8.4v-27.4h8.4v4.6c1-1.5 2.2-2.7 3.7-3.5zm35.3 14.7h-19c.1 1.7.7 3 1.6 3.9 1 .9 2.2 1.3 3.6 1.3 2.1 0 3.5-.9 4.4-2.7h8.9c-.5 1.8-1.3 3.4-2.5 4.9-1.2 1.4-2.7 2.6-4.5 3.4s-3.8 1.2-6 1.2c-2.7 0-5.1-.6-7.2-1.7s-3.7-2.8-4.9-4.9-1.8-4.6-1.8-7.5c0-2.8.6-5.3 1.7-7.5 1.2-2.1 2.8-3.8 4.9-4.9s4.5-1.7 7.2-1.7 5 .6 7.1 1.7 3.7 2.7 4.8 4.8c1.2 2.1 1.7 4.5 1.7 7.2.2.8.1 1.6 0 2.5zm-8.4-4.7c0-1.4-.5-2.6-1.5-3.4a5.73 5.73 0 0 0-3.7-1.3c-1.4 0-2.6.4-3.6 1.2s-1.6 2-1.8 3.5h10.6zm24.8-4.8c1.1-2.1 2.5-3.8 4.3-4.9s3.9-1.7 6.1-1.7c1.9 0 3.6.4 5.1 1.2s2.6 1.8 3.4 3.1v-3.9h8.4v27.4h-8.4v-3.9c-.8 1.3-2 2.3-3.4 3.1-1.5.8-3.1 1.2-5.1 1.2-2.2 0-4.3-.6-6.1-1.7-1.8-1.2-3.3-2.8-4.3-5-1.1-2.1-1.6-4.6-1.6-7.4 0-2.9.5-5.4 1.6-7.5zm17.2 2.5c-1.2-1.2-2.6-1.8-4.2-1.8-1.7 0-3.1.6-4.2 1.8-1.2 1.2-1.7 2.8-1.7 4.9s.6 3.8 1.7 5c1.2 1.2 2.6 1.8 4.2 1.8 1.7 0 3.1-.6 4.2-1.8 1.2-1.2 1.7-2.9 1.7-5 0-2-.6-3.7-1.7-4.9zm25.3-17.7v36.3h-8.4v-36.3h8.4zm15.2 0v36.3h-8.4v-36.3h8.4zm43.6 24.7h-19c.1 1.7.7 3 1.6 3.9 1 .9 2.2 1.3 3.6 1.3 2.1 0 3.5-.9 4.4-2.7h8.9c-.5 1.8-1.3 3.4-2.5 4.9-1.2 1.4-2.7 2.6-4.5 3.4s-3.8 1.2-6 1.2c-2.7 0-5.1-.6-7.2-1.7s-3.7-2.8-4.9-4.9-1.8-4.6-1.8-7.5c0-2.8.6-5.3 1.7-7.5 1.2-2.1 2.8-3.8 4.9-4.9s4.5-1.7 7.2-1.7 5 .6 7.1 1.7 3.7 2.7 4.8 4.8c1.2 2.1 1.7 4.5 1.7 7.2.2.8.1 1.6 0 2.5zm-8.4-4.7c0-1.4-.5-2.6-1.5-3.4a5.73 5.73 0 0 0-3.7-1.3c-1.4 0-2.6.4-3.6 1.2s-1.6 2-1.8 3.5h10.6zm13.8-4.6c1.1-2.1 2.6-3.8 4.6-5 1.9-1.2 4-1.8 6.3-1.8 1.7 0 3.3.3 4.7.9s2.5 1.4 3.3 2.5v-3.1h8.4v40.4h-8.4V303c-.9 1.1-2.1 2.1-3.5 2.7-1.4.7-2.9 1-4.6 1a11.47 11.47 0 0 1-6.2-1.8c-1.9-1.2-3.4-2.8-4.5-5-1.1-2.1-1.7-4.5-1.7-7.3-.1-2.4.4-4.8 1.6-7zm17.9 3.5c-.6-1-1.3-1.7-2.2-2.3-.9-.5-1.9-.8-2.9-.8s-1.9.3-2.8.8-1.7 1.3-2.3 2.3-.9 2.3-.9 3.7c0 1.5.3 2.7.9 3.7s1.3 1.8 2.3 2.3c.9.5 1.9.8 2.8.8 1 0 1.9-.3 2.9-.8.9-.5 1.7-1.3 2.3-2.3s.9-2.3.9-3.7c-.1-1.4-.4-2.7-1-3.7zm43.1-9.9v27.4h-8.4v-3.7c-.9 1.2-2 2.2-3.5 2.9s-3.1 1.1-4.8 1.1c-2.1 0-3.9-.5-5.5-1.4s-2.8-2.3-3.7-4c-.9-1.8-1.3-3.8-1.3-6.2v-16h8.3V294c0 1.8.5 3.3 1.4 4.3s2.2 1.5 3.8 1.5 2.9-.5 3.9-1.5c.9-1 1.4-2.4 1.4-4.3v-14.9h8.4zm6.7 6.2c1.1-2.1 2.5-3.8 4.3-4.9s3.9-1.7 6.1-1.7c1.9 0 3.6.4 5.1 1.2s2.6 1.8 3.4 3.1v-3.9h8.4v27.4h-8.4v-3.9c-.8 1.3-2 2.3-3.4 3.1-1.5.8-3.1 1.2-5.1 1.2-2.2 0-4.3-.6-6.1-1.7-1.8-1.2-3.3-2.8-4.3-5-1.1-2.1-1.6-4.6-1.6-7.4 0-2.9.6-5.4 1.6-7.5zm17.2 2.5c-1.2-1.2-2.6-1.8-4.2-1.8s-3.1.6-4.2 1.8c-1.2 1.2-1.7 2.8-1.7 4.9s.6 3.8 1.7 5c1.2 1.2 2.6 1.8 4.2 1.8s3.1-.6 4.2-1.8c1.2-1.2 1.7-2.9 1.7-5 0-2-.5-3.7-1.7-4.9zm25.3-17.7v36.3h-8.4v-36.3h8.4z" fill="#fff"/></svg>